<svg xmlns="http://www.w3.org/2000/svg" xmlns:xlink="http://www.w3.org/1999/xlink" width="189" zoomAndPan="magnify" viewBox="0 0 141.75 141.750002" height="189" preserveAspectRatio="xMidYMid meet" version="1.0"><defs><clipPath id="a0a6a084a7"><path d="M 79 4 L 124 4 L 124 31.605469 L 79 31.605469 Z M 79 4 " clip-rule="nonzero"/></clipPath><clipPath id="7c70ab87a9"><path d="M 2.957031 9.140625 L 2.957031 26.359375 C 2.957031 29.667969 5.636719 32.347656 8.945312 32.347656 L 118.554688 32.347656 C 121.863281 32.347656 124.546875 29.667969 124.546875 26.359375 L 124.546875 9.140625 C 124.546875 7.554688 123.914062 6.03125 122.789062 4.90625 C 121.667969 3.785156 120.144531 3.152344 118.554688 3.152344 L 8.945312 3.152344 C 5.636719 3.152344 2.957031 5.835938 2.957031 9.140625 Z M 2.957031 9.140625 " clip-rule="nonzero"/></clipPath><clipPath id="01fc1fe403"><path d="M 9.84375 4.050781 L 117.65625 4.050781 C 120.964844 4.050781 123.648438 6.734375 123.648438 10.039062 L 123.648438 25.460938 C 123.648438 28.769531 120.964844 31.449219 117.65625 31.449219 L 9.84375 31.449219 C 6.535156 31.449219 3.855469 28.769531 3.855469 25.460938 L 3.855469 10.039062 C 3.855469 6.734375 6.535156 4.050781 9.84375 4.050781 Z M 9.84375 4.050781 " clip-rule="nonzero"/></clipPath><clipPath id="98457097fe"><path d="M 4 8 L 20 8 L 20 27 L 4 27 Z M 4 8 " clip-rule="nonzero"/></clipPath><clipPath id="03264f670d"><path d="M 2.957031 9.140625 L 2.957031 26.359375 C 2.957031 29.667969 5.636719 32.347656 8.945312 32.347656 L 118.554688 32.347656 C 121.863281 32.347656 124.546875 29.667969 124.546875 26.359375 L 124.546875 9.140625 C 124.546875 7.554688 123.914062 6.03125 122.789062 4.90625 C 121.667969 3.785156 120.144531 3.152344 118.554688 3.152344 L 8.945312 3.152344 C 5.636719 3.152344 2.957031 5.835938 2.957031 9.140625 Z M 2.957031 9.140625 " clip-rule="nonzero"/></clipPath><clipPath id="9a286f1a03"><path d="M 9.84375 4.050781 L 117.65625 4.050781 C 120.964844 4.050781 123.648438 6.734375 123.648438 10.039062 L 123.648438 25.460938 C 123.648438 28.769531 120.964844 31.449219 117.65625 31.449219 L 9.84375 31.449219 C 6.535156 31.449219 3.855469 28.769531 3.855469 25.460938 L 3.855469 10.039062 C 3.855469 6.734375 6.535156 4.050781 9.84375 4.050781 Z M 9.84375 4.050781 " clip-rule="nonzero"/></clipPath><clipPath id="07b2359893"><path d="M 21 4 L 37 4 L 37 27 L 21 27 Z M 21 4 " clip-rule="nonzero"/></clipPath><clipPath id="0944090206"><path d="M 2.957031 9.140625 L 2.957031 26.359375 C 2.957031 29.667969 5.636719 32.347656 8.945312 32.347656 L 118.554688 32.347656 C 121.863281 32.347656 124.546875 29.667969 124.546875 26.359375 L 124.546875 9.140625 C 124.546875 7.554688 123.914062 6.03125 122.789062 4.90625 C 121.667969 3.785156 120.144531 3.152344 118.554688 3.152344 L 8.945312 3.152344 C 5.636719 3.152344 2.957031 5.835938 2.957031 9.140625 Z M 2.957031 9.140625 " clip-rule="nonzero"/></clipPath><clipPath id="d9dc878cd7"><path d="M 9.84375 4.050781 L 117.65625 4.050781 C 120.964844 4.050781 123.648438 6.734375 123.648438 10.039062 L 123.648438 25.460938 C 123.648438 28.769531 120.964844 31.449219 117.65625 31.449219 L 9.84375 31.449219 C 6.535156 31.449219 3.855469 28.769531 3.855469 25.460938 L 3.855469 10.039062 C 3.855469 6.734375 6.535156 4.050781 9.84375 4.050781 Z M 9.84375 4.050781 " clip-rule="nonzero"/></clipPath><clipPath id="ac7569831c"><path d="M 38 8 L 56 8 L 56 27 L 38 27 Z M 38 8 " clip-rule="nonzero"/></clipPath><clipPath id="3c8adc3aca"><path d="M 2.957031 9.140625 L 2.957031 26.359375 C 2.957031 29.667969 5.636719 32.347656 8.945312 32.347656 L 118.554688 32.347656 C 121.863281 32.347656 124.546875 29.667969 124.546875 26.359375 L 124.546875 9.140625 C 124.546875 7.554688 123.914062 6.03125 122.789062 4.90625 C 121.667969 3.785156 120.144531 3.152344 118.554688 3.152344 L 8.945312 3.152344 C 5.636719 3.152344 2.957031 5.835938 2.957031 9.140625 Z M 2.957031 9.140625 " clip-rule="nonzero"/></clipPath><clipPath id="845fd7a438"><path d="M 9.84375 4.050781 L 117.65625 4.050781 C 120.964844 4.050781 123.648438 6.734375 123.648438 10.039062 L 123.648438 25.460938 C 123.648438 28.769531 120.964844 31.449219 117.65625 31.449219 L 9.84375 31.449219 C 6.535156 31.449219 3.855469 28.769531 3.855469 25.460938 L 3.855469 10.039062 C 3.855469 6.734375 6.535156 4.050781 9.84375 4.050781 Z M 9.84375 4.050781 " clip-rule="nonzero"/></clipPath><clipPath id="7e31e56014"><path d="M 57 8 L 76 8 L 76 31.605469 L 57 31.605469 Z M 57 8 " clip-rule="nonzero"/></clipPath><clipPath id="6f23c9242f"><path d="M 2.957031 9.140625 L 2.957031 26.359375 C 2.957031 29.667969 5.636719 32.347656 8.945312 32.347656 L 118.554688 32.347656 C 121.863281 32.347656 124.546875 29.667969 124.546875 26.359375 L 124.546875 9.140625 C 124.546875 7.554688 123.914062 6.03125 122.789062 4.90625 C 121.667969 3.785156 120.144531 3.152344 118.554688 3.152344 L 8.945312 3.152344 C 5.636719 3.152344 2.957031 5.835938 2.957031 9.140625 Z M 2.957031 9.140625 " clip-rule="nonzero"/></clipPath><clipPath id="0907ad28d2"><path d="M 9.84375 4.050781 L 117.65625 4.050781 C 120.964844 4.050781 123.648438 6.734375 123.648438 10.039062 L 123.648438 25.460938 C 123.648438 28.769531 120.964844 31.449219 117.65625 31.449219 L 9.84375 31.449219 C 6.535156 31.449219 3.855469 28.769531 3.855469 25.460938 L 3.855469 10.039062 C 3.855469 6.734375 6.535156 4.050781 9.84375 4.050781 Z M 9.84375 4.050781 " clip-rule="nonzero"/></clipPath><clipPath id="bde6f0fa6e"><path d="M 2.957031 3.152344 L 124.257812 3.152344 L 124.257812 32.347656 L 2.957031 32.347656 Z M 2.957031 3.152344 " clip-rule="nonzero"/></clipPath><clipPath id="b2cae5084f"><path d="M 2.957031 9.140625 L 2.957031 26.359375 C 2.957031 29.667969 5.636719 32.347656 8.945312 32.347656 L 118.554688 32.347656 C 121.863281 32.347656 124.546875 29.667969 124.546875 26.359375 L 124.546875 9.140625 C 124.546875 7.554688 123.914062 6.03125 122.789062 4.90625 C 121.667969 3.785156 120.144531 3.152344 118.554688 3.152344 L 8.945312 3.152344 C 5.636719 3.152344 2.957031 5.835938 2.957031 9.140625 Z M 2.957031 9.140625 " clip-rule="nonzero"/></clipPath><clipPath id="ec6b3d4e4e"><path d="M 2.957031 9.140625 L 2.957031 26.355469 C 2.957031 29.660156 5.636719 32.34375 8.945312 32.34375 L 118.546875 32.34375 C 121.855469 32.34375 124.539062 29.660156 124.539062 26.355469 L 124.539062 9.140625 C 124.539062 7.554688 123.90625 6.03125 122.78125 4.90625 C 121.660156 3.785156 120.136719 3.152344 118.546875 3.152344 L 8.945312 3.152344 C 5.636719 3.152344 2.957031 5.832031 2.957031 9.140625 Z M 2.957031 9.140625 " clip-rule="nonzero"/></clipPath><clipPath id="64ae3b5dd8"><rect x="0" width="127" y="0" height="34"/></clipPath></defs><g transform="matrix(1, 0, 0, 1, 7, 53)"><g clip-path="url(#64ae3b5dd8)"><g clip-path="url(#a0a6a084a7)"><g clip-path="url(#7c70ab87a9)"><g clip-path="url(#01fc1fe403)"><path fill="#5433eb" d="M 83.75 3.152344 C 81.304688 3.152344 79.324219 5.140625 79.324219 7.589844 L 79.324219 27.777344 C 79.324219 30.230469 81.304688 32.214844 83.75 32.214844 L 119.820312 32.214844 C 122.265625 32.214844 124.246094 30.230469 124.246094 27.777344 L 124.246094 7.589844 C 124.246094 5.140625 122.265625 3.152344 119.820312 3.152344 Z M 89.980469 23.433594 L 89.980469 18.316406 L 93.1875 18.316406 C 96.121094 18.316406 97.679688 16.667969 97.679688 14.167969 C 97.679688 11.671875 96.121094 10.175781 93.1875 10.175781 L 87.910156 10.175781 L 87.910156 23.433594 Z M 89.980469 12.148438 L 92.714844 12.148438 C 94.613281 12.148438 95.546875 12.929688 95.546875 14.238281 C 95.546875 15.546875 94.648438 16.328125 92.800781 16.328125 L 89.980469 16.328125 Z M 101.328125 23.707031 C 102.90625 23.707031 103.9375 23.007812 104.414062 21.820312 C 104.546875 23.144531 105.34375 23.824219 107.074219 23.367188 L 107.089844 21.957031 C 106.398438 22.023438 106.261719 21.769531 106.261719 21.039062 L 106.261719 17.570312 C 106.261719 15.53125 104.921875 14.324219 102.445312 14.324219 C 100.003906 14.324219 98.597656 15.546875 98.597656 17.621094 L 100.496094 17.621094 C 100.496094 16.632812 101.191406 16.039062 102.414062 16.039062 C 103.703125 16.039062 104.292969 16.601562 104.277344 17.570312 L 104.277344 18.011719 L 102.089844 18.25 C 99.632812 18.519531 98.277344 19.457031 98.277344 21.089844 C 98.277344 22.429688 99.226562 23.707031 101.328125 23.707031 Z M 101.75 22.175781 C 100.683594 22.175781 100.257812 21.597656 100.257812 21.019531 C 100.257812 20.238281 101.140625 19.882812 102.871094 19.675781 L 104.226562 19.523438 C 104.140625 21.019531 103.140625 22.175781 101.75 22.175781 Z M 113.371094 24.097656 C 112.507812 26.203125 111.117188 26.832031 108.945312 26.832031 L 108.015625 26.832031 L 108.015625 25.101562 L 109.015625 25.101562 C 110.203125 25.101562 110.777344 24.726562 111.40625 23.65625 L 107.558594 14.59375 L 109.691406 14.59375 L 112.4375 21.207031 L 114.878906 14.59375 L 116.964844 14.59375 Z M 113.371094 24.097656 " fill-opacity="1" fill-rule="evenodd"/></g></g></g><g clip-path="url(#98457097fe)"><g clip-path="url(#03264f670d)"><g clip-path="url(#9a286f1a03)"><path fill="#5433eb" d="M 13.152344 15.925781 C 10.320312 15.3125 9.058594 15.070312 9.058594 13.976562 C 9.058594 12.945312 9.914062 12.433594 11.621094 12.433594 C 13.121094 12.433594 14.21875 13.09375 15.027344 14.382812 C 15.089844 14.480469 15.214844 14.515625 15.316406 14.460938 L 18.503906 12.847656 C 18.617188 12.789062 18.660156 12.644531 18.59375 12.535156 C 17.273438 10.234375 14.828125 8.976562 11.613281 8.976562 C 7.386719 8.976562 4.761719 11.066406 4.761719 14.386719 C 4.761719 17.914062 7.957031 18.804688 10.792969 19.421875 C 13.628906 20.035156 14.894531 20.277344 14.894531 21.371094 C 14.894531 22.464844 13.972656 22.984375 12.132812 22.984375 C 10.429688 22.984375 9.167969 22.203125 8.40625 20.6875 C 8.351562 20.574219 8.21875 20.53125 8.105469 20.585938 L 4.925781 22.167969 C 4.816406 22.226562 4.769531 22.359375 4.828125 22.472656 C 6.089844 25.019531 8.679688 26.449219 12.136719 26.449219 C 16.539062 26.449219 19.199219 24.394531 19.199219 20.96875 C 19.199219 17.546875 15.984375 16.550781 13.152344 15.933594 Z M 13.152344 15.925781 " fill-opacity="1" fill-rule="nonzero"/></g></g></g><g clip-path="url(#07b2359893)"><g clip-path="url(#0944090206)"><g clip-path="url(#d9dc878cd7)"><path fill="#5433eb" d="M 30.226562 8.976562 C 28.421875 8.976562 26.824219 9.617188 25.675781 10.761719 C 25.605469 10.832031 25.488281 10.78125 25.488281 10.683594 L 25.488281 3.378906 C 25.488281 3.253906 25.386719 3.152344 25.261719 3.152344 L 21.273438 3.152344 C 21.148438 3.152344 21.050781 3.253906 21.050781 3.378906 L 21.050781 26.046875 C 21.050781 26.171875 21.148438 26.273438 21.273438 26.273438 L 25.261719 26.273438 C 25.386719 26.273438 25.488281 26.171875 25.488281 26.046875 L 25.488281 16.105469 C 25.488281 14.183594 26.953125 12.710938 28.933594 12.710938 C 30.910156 12.710938 32.34375 14.152344 32.34375 16.105469 L 32.34375 26.046875 C 32.34375 26.171875 32.441406 26.273438 32.570312 26.273438 L 36.554688 26.273438 C 36.679688 26.273438 36.78125 26.171875 36.78125 26.046875 L 36.78125 16.105469 C 36.78125 11.925781 34.050781 8.980469 30.226562 8.980469 Z M 30.226562 8.976562 " fill-opacity="1" fill-rule="nonzero"/></g></g></g><g clip-path="url(#ac7569831c)"><g clip-path="url(#3c8adc3aca)"><g clip-path="url(#845fd7a438)"><path fill="#5433eb" d="M 44.867188 8.324219 C 42.703125 8.324219 40.675781 8.992188 39.21875 9.953125 C 39.121094 10.015625 39.085938 10.152344 39.148438 10.253906 L 40.902344 13.265625 C 40.96875 13.371094 41.105469 13.410156 41.210938 13.34375 C 42.316406 12.675781 43.582031 12.328125 44.875 12.335938 C 48.355469 12.335938 50.914062 14.800781 50.914062 18.054688 C 50.914062 20.828125 48.867188 22.882812 46.269531 22.882812 C 44.15625 22.882812 42.6875 21.648438 42.6875 19.902344 C 42.6875 18.902344 43.109375 18.085938 44.210938 17.507812 C 44.328125 17.445312 44.367188 17.304688 44.300781 17.195312 L 42.640625 14.378906 C 42.589844 14.285156 42.472656 14.246094 42.371094 14.28125 C 40.148438 15.109375 38.589844 17.097656 38.589844 19.769531 C 38.589844 23.808594 41.796875 26.824219 46.265625 26.824219 C 51.488281 26.824219 55.242188 23.191406 55.242188 17.984375 C 55.242188 12.402344 50.875 8.324219 44.867188 8.324219 Z M 44.867188 8.324219 " fill-opacity="1" fill-rule="nonzero"/></g></g></g><g clip-path="url(#7e31e56014)"><g clip-path="url(#6f23c9242f)"><g clip-path="url(#0907ad28d2)"><path fill="#5433eb" d="M 66.902344 8.945312 C 64.886719 8.945312 63.085938 9.691406 61.769531 11.007812 C 61.699219 11.078125 61.582031 11.027344 61.582031 10.925781 L 61.582031 9.34375 C 61.582031 9.21875 61.480469 9.117188 61.355469 9.117188 L 57.472656 9.117188 C 57.347656 9.117188 57.246094 9.21875 57.246094 9.34375 L 57.246094 31.976562 C 57.246094 32.105469 57.347656 32.203125 57.472656 32.203125 L 61.457031 32.203125 C 61.585938 32.203125 61.683594 32.105469 61.683594 31.976562 L 61.683594 24.554688 C 61.683594 24.457031 61.800781 24.40625 61.875 24.472656 C 63.183594 25.695312 64.917969 26.410156 66.90625 26.410156 C 71.582031 26.410156 75.230469 22.613281 75.230469 17.675781 C 75.230469 12.742188 71.578125 8.941406 66.90625 8.941406 Z M 66.152344 22.578125 C 63.492188 22.578125 61.472656 20.453125 61.472656 17.644531 C 61.472656 14.835938 63.488281 12.714844 66.152344 12.714844 C 68.816406 12.714844 70.824219 14.804688 70.824219 17.644531 C 70.824219 20.488281 68.839844 22.578125 66.148438 22.578125 Z M 66.152344 22.578125 " fill-opacity="1" fill-rule="nonzero"/></g></g></g><g clip-path="url(#bde6f0fa6e)"><g clip-path="url(#b2cae5084f)"><g clip-path="url(#ec6b3d4e4e)"><path stroke-linecap="butt" transform="matrix(0.748773, 0, 0, 0.748773, 2.955239, 3.152308)" fill="none" stroke-linejoin="miter" d="M 0.00239348 7.997504 L 0.00239348 30.988237 C 0.00239348 35.401706 3.581165 38.985694 7.999851 38.985694 L 154.374717 38.985694 C 158.793404 38.985694 162.377392 35.401706 162.377392 30.988237 L 162.377392 7.997504 C 162.377392 5.879456 161.53226 3.844878 160.029802 2.34242 C 158.532561 0.84518 156.497982 0.0000470976 154.374717 0.0000470976 L 7.999851 0.0000470976 C 3.581165 0.0000470976 0.00239348 3.578818 0.00239348 7.997504 Z M 0.00239348 7.997504 " stroke="#dcdddf" stroke-width="1" stroke-opacity="1" stroke-miterlimit="4"/></g></g></g></g></g></svg>
