<svg xmlns="http://www.w3.org/2000/svg" role="img" viewBox="0 0 38 24" aria-labelledby="pi-shoppay">
  <title id="pi-shoppay">Shop Pay</title>
  <g fill='none'>
    <path fill='#000' d='M35,0 L3,0 C1.3,0 0,1.3 0,3 L0,21 C0,22.7 1.4,24 3,24 L35,24 C36.7,24 38,22.7 38,21 L38,3 C38,1.3 36.6,0 35,0 Z' opacity='.07'></path>
    <path fill='#FFF' d='M35,1 C36.1,1 37,1.9 37,3 L37,21 C37,22.1 36.1,23 35,23 L3,23 C1.9,23 1,22.1 1,21 L1,3 C1,1.9 1.9,1 3,1 L35,1'></path>
  </g>
  
  <g transform="translate(4.5, 6.5) scale(0.22)">
    <path d="M109.4 12.8c0 4.1-3.3 7.3-7.5 7.3s-7.5-3.3-7.5-7.3c0-4.1 3.3-7.3 7.5-7.3s7.5 3.3 7.5 7.3zm-11.8 0c0 2.2 1.8 4.1 4.3 4.1s4.3-1.8 4.3-4.1c0-2.2-1.8-4.1-4.3-4.1s-4.3 1.8-4.3 4.1zm-8.3 4h-2.1v-8h2.1v8zm-5.7-8h-4.3v11.2h4.3c3.4 0 5.8-2 5.8-5.6 0-3.6-2.4-5.6-5.8-5.6zm0 8h-2.1v-4.7h2.1c1.9 0 3.1.9 3.1 2.3 0 1.5-1.2 2.4-3.1 2.4zm-22 3.2h4.3V5.6h-4.3v11.2zm-4.6-11.2h-4.3v11.2h4.3c3.4 0 5.8-2 5.8-5.6 0-3.6-2.4-5.6-5.8-5.6zm0 8h-2.1v-4.7h2.1c1.9 0 3.1.9 3.1 2.3 0 1.5-1.2 2.4-3.1 2.4zm-9.3-8h-2.1v8h2.1v-8zm-8 4c0 2.2 1.8 4.1 4.3 4.1s4.3-1.8 4.3-4.1c0-2.2-1.8-4.1-4.3-4.1s-4.3 1.8-4.3 4.1zm-4.3-4.1c-4.2 0-7.5 3.3-7.5 7.3 0 4.1 3.3 7.3 7.5 7.3s7.5-3.3 7.5-7.3c0-4.1-3.3-7.3-7.5-7.3z" fill="#5a31f4"/>
    <path d="M128.5 22.8c-2.4 2.8-5.7 4.5-9.4 4.5-7.4 0-13.4-5.2-13.4-12.8 0-7.3 5.9-12.8 13.5-12.8 3.5 0 6.7 1.4 9.1 3.8l-1.8 2.3c-1.8-1.8-4-2.9-6.9-2.9-5.1 0-9.3 4-9.3 9.4 0 5.5 4.3 9.6 9.3 9.6 2.8 0 5.2-1 6.9-2.7l1.7 2.6zM42 22.1c.3.2.7.3 1.2.3.9 0 1.6-.6 1.6-1.5 0-.9-.7-1.4-1.6-1.4-.5 0-.9.1-1.2.3l-.3-1.2c.4-.2.9-.4 1.5-.4 1.7 0 2.8 1.1 2.8 2.6 0 1.6-1.1 2.7-2.9 2.7-1 0-1.7-.3-2.3-.8l.4-1zM38.8 16.8h1.2v6.6h-1.2v-6.6zm3.3 4.3c0-1.7.9-2.7 2.4-2.7 1.5 0 2.4.9 2.4 2.7 0 1.7-.9 2.7-2.4 2.7-1.5 0-2.4-1-2.4-2.7zm1.2 0c0 1.1.6 1.6 1.2 1.6s1.2-.5 1.2-1.6c0-1.1-.6-1.6-1.2-1.6s-1.2.5-1.2 1.6zm4.1-4.3h1.2v6.6h-1.2v-6.6zm-24.3 0h1.2v4.3l3.3-4.3h1.4l-3.3 4.2c1 .2 1.7.9 1.7 1.9 0 1.2-1 2-2.3 2s-2.3-.8-2.3-2c0-.9.5-1.6 1.3-1.8v-.1l-3.1-4.2h1.3l2.7 3.8v-3.8zm-4 4.3c0-1.7.9-2.7 2.4-2.7 1.5 0 2.4.9 2.4 2.7 0 1.7-.9 2.7-2.4 2.7-1.5 0-2.4-1-2.4-2.7zm1.2 0c0 1.1.6 1.6 1.2 1.6s1.2-.5 1.2-1.6c0-1.1-.6-1.6-1.2-1.6s-1.2.5-1.2 1.6zM15 16.8h1.2v6.6H15v-6.6zm-3.3 2.3h-2.1v2.1c0 1.1.6 1.6 1.4 1.6.8 0 1.4-.4 1.7-1l1.1.4c-.4 1.2-1.4 1.8-2.8 1.8-1.9 0-3.1-1.1-3.1-3.2v-1.7h4.8v-1.2H9.6v-4h1.2v4h.9v1.2z" fill="#5a31f4"/>
    <path d="M25.7 23.3c.4.4 1 .6 1.6.6s1.1-.2 1.5-.6l.7.8c-.5.5-1.3.8-2.2.8s-1.8-.3-2.3-.8c-1.3-1.3-1.3-3.3 0-4.6.5-.5 1.2-.8 2.1-.8s1.6.3 2.1.8c1.3 1.3 1.3 3.3 0 4.6-.5.5-1.2.8-2.1.8s-1.6-.3-2.1-.8l-.7.8zm1.5-3.8c-.9 0-1.7.7-1.7 1.9s.7 1.9 1.7 1.9 1.7-.7 1.7-1.9-.7-1.9-1.7-1.9z" fill="#5a31f4"/>
  </g>
</svg>
