<svg xmlns="http://www.w3.org/2000/svg" xmlns:xlink="http://www.w3.org/1999/xlink" width="189" zoomAndPan="magnify" viewBox="0 0 141.75 141.750002" height="189" preserveAspectRatio="xMidYMid meet" version="1.0"><defs><clipPath id="971eb991e2"><path d="M 0 32 L 141.5 32 L 141.5 109 L 0 109 Z M 0 32 " clip-rule="nonzero"/></clipPath><clipPath id="14825120ba"><path d="M 39.039062 8.6875 L 132.347656 8.6875 L 132.347656 68.589844 L 39.039062 68.589844 Z M 39.039062 8.6875 " clip-rule="nonzero"/></clipPath><clipPath id="288096ff52"><path d="M 39.039062 14.675781 L 39.039062 62.824219 C 39.039062 66.132812 41.722656 68.8125 45.03125 68.8125 L 126.667969 68.8125 C 129.976562 68.8125 132.660156 66.132812 132.660156 62.824219 L 132.660156 14.675781 C 132.660156 11.371094 129.976562 8.6875 126.667969 8.6875 L 45.03125 8.6875 C 41.722656 8.6875 39.039062 11.371094 39.039062 14.675781 Z M 39.039062 14.675781 " clip-rule="nonzero"/></clipPath><clipPath id="5c13f46a0a"><path d="M 1.988281 3.460938 L 139.757812 3.460938 L 139.757812 73.847656 L 1.988281 73.847656 Z M 1.988281 3.460938 " clip-rule="nonzero"/></clipPath><clipPath id="52baad7f31"><path d="M 8.726562 3.460938 L 132.769531 3.460938 C 134.558594 3.460938 136.273438 4.171875 137.535156 5.433594 C 138.800781 6.699219 139.507812 8.414062 139.507812 10.199219 L 139.507812 67.292969 C 139.507812 69.082031 138.800781 70.796875 137.535156 72.058594 C 136.273438 73.324219 134.558594 74.035156 132.769531 74.035156 L 8.726562 74.035156 C 6.9375 74.035156 5.222656 73.324219 3.960938 72.058594 C 2.695312 70.796875 1.988281 69.082031 1.988281 67.292969 L 1.988281 10.199219 C 1.988281 8.414062 2.695312 6.699219 3.960938 5.433594 C 5.222656 4.171875 6.9375 3.460938 8.726562 3.460938 Z M 8.726562 3.460938 " clip-rule="nonzero"/></clipPath><clipPath id="dc9cae3850"><rect x="0" width="142" y="0" height="77"/></clipPath></defs><g clip-path="url(#971eb991e2)"><g transform="matrix(1, 0, 0, 1, 0, 32)"><g clip-path="url(#dc9cae3850)"><g clip-path="url(#14825120ba)"><g clip-path="url(#288096ff52)"><path fill="#5433eb" d="M 48.839844 8.6875 C 43.800781 8.6875 39.710938 12.761719 39.710938 17.792969 L 39.710938 59.199219 C 39.710938 64.230469 43.800781 68.304688 48.839844 68.304688 L 123.21875 68.304688 C 128.261719 68.304688 132.347656 64.230469 132.347656 59.199219 L 132.347656 17.792969 C 132.347656 12.761719 128.261719 8.6875 123.21875 8.6875 Z M 61.6875 50.289062 L 61.6875 39.792969 L 68.304688 39.792969 C 74.351562 39.792969 77.570312 36.414062 77.570312 31.285156 C 77.570312 26.160156 74.351562 23.09375 68.304688 23.09375 L 57.421875 23.09375 L 57.421875 50.289062 Z M 61.6875 27.136719 L 67.324219 27.136719 C 71.242188 27.136719 73.164062 28.742188 73.164062 31.425781 C 73.164062 34.109375 71.3125 35.714844 67.5 35.714844 L 61.6875 35.714844 Z M 85.085938 50.847656 C 88.339844 50.847656 90.46875 49.417969 91.449219 46.976562 C 91.730469 49.699219 93.371094 51.09375 96.9375 50.152344 L 96.972656 47.257812 C 95.539062 47.394531 95.257812 46.875 95.257812 45.375 L 95.257812 38.261719 C 95.257812 34.074219 92.496094 31.601562 87.394531 31.601562 C 82.359375 31.601562 79.457031 34.109375 79.457031 38.363281 L 83.375 38.363281 C 83.375 36.34375 84.808594 35.121094 87.324219 35.121094 C 89.980469 35.121094 91.203125 36.273438 91.167969 38.261719 L 91.167969 39.167969 L 86.660156 39.65625 C 81.589844 40.214844 78.792969 42.132812 78.792969 45.476562 C 78.792969 48.234375 80.753906 50.847656 85.085938 50.847656 Z M 85.960938 47.710938 C 83.757812 47.710938 82.882812 46.523438 82.882812 45.339844 C 82.882812 43.734375 84.703125 43.003906 88.269531 42.585938 L 91.066406 42.269531 C 90.890625 45.339844 88.828125 47.710938 85.960938 47.710938 Z M 109.921875 51.652344 C 108.136719 55.972656 105.273438 57.265625 100.796875 57.265625 L 98.875 57.265625 L 98.875 53.707031 L 100.9375 53.707031 C 103.382812 53.707031 104.574219 52.941406 105.867188 50.742188 L 97.929688 32.15625 L 102.335938 32.15625 L 108 45.722656 L 113.03125 32.15625 L 117.332031 32.15625 Z M 109.921875 51.652344 " fill-opacity="1" fill-rule="evenodd"/></g></g><path fill="#5433eb" d="M 15.957031 19.296875 C 11.492188 19.296875 7.308594 20.664062 4.308594 22.632812 C 4.105469 22.765625 4.03125 23.042969 4.160156 23.253906 L 7.78125 29.429688 C 7.914062 29.648438 8.199219 29.726562 8.417969 29.59375 C 10.699219 28.222656 13.308594 27.507812 15.972656 27.523438 C 23.144531 27.523438 28.417969 32.578125 28.417969 39.257812 C 28.417969 44.945312 24.199219 49.160156 18.847656 49.160156 C 14.484375 49.160156 11.460938 46.625 11.460938 43.046875 C 11.460938 41 12.332031 39.320312 14.601562 38.132812 C 14.839844 38.007812 14.925781 37.71875 14.785156 37.492188 L 11.367188 31.714844 C 11.253906 31.527344 11.019531 31.4375 10.808594 31.519531 C 6.226562 33.214844 3.011719 37.292969 3.011719 42.773438 C 3.011719 51.058594 9.621094 57.246094 18.839844 57.246094 C 29.605469 57.246094 37.347656 49.796875 37.347656 39.113281 C 37.347656 27.664062 28.339844 19.296875 15.957031 19.296875 Z M 15.957031 19.296875 " fill-opacity="1" fill-rule="nonzero"/><g clip-path="url(#5c13f46a0a)"><g clip-path="url(#52baad7f31)"><path stroke-linecap="butt" transform="matrix(0.748773, 0, 0, 0.748773, 1.98649, 3.461467)" fill="none" stroke-linejoin="miter" d="M 9.001489 -0.000707354 L 174.663114 -0.000707354 C 177.052439 -0.000707354 179.342644 0.948763 181.027692 2.633811 C 182.717957 4.324076 183.66221 6.614281 183.66221 8.998389 L 183.66221 85.248123 C 183.66221 87.637449 182.717957 89.927653 181.027692 91.612701 C 179.342644 93.302967 177.052439 94.252436 174.663114 94.252436 L 9.001489 94.252436 C 6.612164 94.252436 4.321959 93.302967 2.636911 91.612701 C 0.946646 89.927653 0.00239275 87.637449 0.00239275 85.248123 L 0.00239275 8.998389 C 0.00239275 6.614281 0.946646 4.324076 2.636911 2.633811 C 4.321959 0.948763 6.612164 -0.000707354 9.001489 -0.000707354 Z M 9.001489 -0.000707354 " stroke="#dcdddf" stroke-width="1" stroke-opacity="1" stroke-miterlimit="4"/></g></g></g></g></g></svg>
