<svg xmlns="http://www.w3.org/2000/svg" xmlns:xlink="http://www.w3.org/1999/xlink" width="189" zoomAndPan="magnify" viewBox="0 0 141.75 141.750002" height="189" preserveAspectRatio="xMidYMid meet" version="1.0"><defs><clipPath id="2124bb0e12"><path d="M 22.019531 5.152344 L 67.011719 5.152344 L 67.011719 34.355469 L 22.019531 34.355469 Z M 22.019531 5.152344 " clip-rule="nonzero"/></clipPath><clipPath id="31b85e5640"><path d="M 22.019531 11.140625 L 22.019531 28.359375 C 22.019531 31.667969 24.699219 34.347656 28.007812 34.347656 L 61.488281 34.347656 C 64.796875 34.347656 67.476562 31.667969 67.476562 28.359375 L 67.476562 11.140625 C 67.476562 9.554688 66.847656 8.03125 65.722656 6.90625 C 64.597656 5.785156 63.074219 5.152344 61.488281 5.152344 L 28.007812 5.152344 C 24.699219 5.152344 22.019531 7.835938 22.019531 11.140625 Z M 22.019531 11.140625 " clip-rule="nonzero"/></clipPath><clipPath id="cb114e73c6"><path d="M 4.023438 10 L 21.996094 10 L 21.996094 29 L 4.023438 29 Z M 4.023438 10 " clip-rule="nonzero"/></clipPath><clipPath id="eb60a2d27b"><path d="M 2.359375 2.613281 L 69 2.613281 L 69 37 L 2.359375 37 Z M 2.359375 2.613281 " clip-rule="nonzero"/></clipPath><clipPath id="daa1bb29f0"><path d="M 9.097656 2.613281 L 62.398438 2.613281 C 66.121094 2.613281 69.136719 5.632812 69.136719 9.351562 L 69.136719 30.144531 C 69.136719 33.867188 66.121094 36.882812 62.398438 36.882812 L 9.097656 36.882812 C 5.378906 36.882812 2.359375 33.867188 2.359375 30.144531 L 2.359375 9.351562 C 2.359375 5.632812 5.378906 2.613281 9.097656 2.613281 Z M 9.097656 2.613281 " clip-rule="nonzero"/></clipPath><clipPath id="ff74b697a1"><rect x="0" width="71" y="0" height="39"/></clipPath></defs><g transform="matrix(1, 0, 0, 1, 35, 51)"><g clip-path="url(#ff74b697a1)"><g clip-path="url(#2124bb0e12)"><g clip-path="url(#31b85e5640)"><path fill="#5433eb" d="M 26.507812 5.152344 C 24.0625 5.152344 22.082031 7.140625 22.082031 9.589844 L 22.082031 29.777344 C 22.082031 32.230469 24.0625 34.214844 26.507812 34.214844 L 62.578125 34.214844 C 65.023438 34.214844 67.003906 32.230469 67.003906 29.777344 L 67.003906 9.589844 C 67.003906 7.140625 65.023438 5.152344 62.578125 5.152344 Z M 32.738281 25.433594 L 32.738281 20.316406 L 35.945312 20.316406 C 38.878906 20.316406 40.441406 18.667969 40.441406 16.167969 C 40.441406 13.671875 38.878906 12.175781 35.945312 12.175781 L 30.667969 12.175781 L 30.667969 25.433594 Z M 32.738281 14.144531 L 35.472656 14.144531 C 37.371094 14.144531 38.304688 14.929688 38.304688 16.238281 C 38.304688 17.546875 37.40625 18.328125 35.558594 18.328125 L 32.738281 18.328125 Z M 44.085938 25.707031 C 45.664062 25.707031 46.695312 25.007812 47.171875 23.820312 C 47.308594 25.144531 48.105469 25.824219 49.832031 25.367188 L 49.851562 23.953125 C 49.15625 24.023438 49.019531 23.769531 49.019531 23.035156 L 49.019531 19.570312 C 49.019531 17.527344 47.679688 16.324219 45.203125 16.324219 C 42.765625 16.324219 41.355469 17.546875 41.355469 19.621094 L 43.253906 19.621094 C 43.253906 18.632812 43.949219 18.039062 45.171875 18.039062 C 46.460938 18.039062 47.054688 18.601562 47.035156 19.570312 L 47.035156 20.011719 L 44.847656 20.25 C 42.390625 20.519531 41.035156 21.457031 41.035156 23.089844 C 41.035156 24.429688 41.984375 25.707031 44.085938 25.707031 Z M 44.511719 24.175781 C 43.441406 24.175781 43.019531 23.597656 43.019531 23.019531 C 43.019531 22.238281 43.898438 21.882812 45.628906 21.675781 L 46.984375 21.523438 C 46.898438 23.019531 45.898438 24.175781 44.511719 24.175781 Z M 56.128906 26.097656 C 55.265625 28.203125 53.875 28.832031 51.703125 28.832031 L 50.773438 28.832031 L 50.773438 27.101562 L 51.773438 27.101562 C 52.960938 27.101562 53.535156 26.726562 54.164062 25.65625 L 50.316406 16.59375 L 52.449219 16.59375 L 55.199219 23.207031 L 57.640625 16.59375 L 59.722656 16.59375 Z M 56.128906 26.097656 " fill-opacity="1" fill-rule="evenodd"/></g></g><g clip-path="url(#cb114e73c6)"><path fill="#5433eb" d="M 10.726562 10.324219 C 8.5625 10.324219 6.53125 10.992188 5.078125 11.949219 C 4.976562 12.015625 4.945312 12.148438 5.003906 12.253906 L 6.761719 15.265625 C 6.828125 15.371094 6.964844 15.410156 7.070312 15.34375 C 8.175781 14.675781 9.441406 14.328125 10.734375 14.335938 C 14.214844 14.335938 16.769531 16.796875 16.769531 20.054688 C 16.769531 22.828125 14.722656 24.882812 12.128906 24.882812 C 10.011719 24.882812 8.546875 23.648438 8.546875 21.902344 C 8.546875 20.902344 8.96875 20.085938 10.070312 19.507812 C 10.183594 19.445312 10.226562 19.304688 10.15625 19.195312 L 8.5 16.378906 C 8.445312 16.285156 8.332031 16.242188 8.230469 16.28125 C 6.007812 17.109375 4.449219 19.097656 4.449219 21.769531 C 4.449219 25.808594 7.652344 28.824219 12.125 28.824219 C 17.347656 28.824219 21.101562 25.191406 21.101562 19.984375 C 21.101562 14.402344 16.730469 10.324219 10.726562 10.324219 Z M 10.726562 10.324219 " fill-opacity="1" fill-rule="nonzero"/></g><g clip-path="url(#eb60a2d27b)"><g clip-path="url(#daa1bb29f0)"><path stroke-linecap="butt" transform="matrix(0.748773, 0, 0, 0.748773, 2.360294, 2.614771)" fill="none" stroke-linejoin="miter" d="M 8.997869 -0.00198962 L 80.182025 -0.00198962 C 85.1537 -0.00198962 89.181122 4.030649 89.181122 8.997107 L 89.181122 36.766492 C 89.181122 41.738167 85.1537 45.765588 80.182025 45.765588 L 8.997869 45.765588 C 4.031411 45.765588 -0.00122705 41.738167 -0.00122705 36.766492 L -0.00122705 8.997107 C -0.00122705 4.030649 4.031411 -0.00198962 8.997869 -0.00198962 Z M 8.997869 -0.00198962 " stroke="#dcdddf" stroke-width="1" stroke-opacity="1" stroke-miterlimit="4"/></g></g></g></g></svg>