<svg xmlns="http://www.w3.org/2000/svg" xmlns:xlink="http://www.w3.org/1999/xlink" width="300" zoomAndPan="magnify" viewBox="0 0 224.87999 187.499995" height="250" preserveAspectRatio="xMidYMid meet" version="1.0"><defs><clipPath id="8b0ab1e51c"><path d="M 65 47.113281 L 207.878906 47.113281 L 207.878906 139.867188 L 65 139.867188 Z M 65 47.113281 " clip-rule="nonzero"/></clipPath><clipPath id="755ecacd21"><path d="M 63.511719 53.097656 L 63.511719 133.902344 C 63.511719 137.207031 66.191406 139.886719 69.496094 139.886719 L 201.980469 139.886719 C 205.285156 139.886719 207.964844 137.207031 207.964844 133.902344 L 207.964844 53.097656 C 207.964844 51.511719 207.335938 49.988281 206.214844 48.867188 C 205.089844 47.742188 203.570312 47.113281 201.980469 47.113281 L 69.496094 47.113281 C 66.191406 47.113281 63.511719 49.792969 63.511719 53.097656 Z M 63.511719 53.097656 " clip-rule="nonzero"/></clipPath><clipPath id="6565c61d44"><path d="M 6.339844 39.050781 L 218.765625 39.050781 L 218.765625 148 L 6.339844 148 Z M 6.339844 39.050781 " clip-rule="nonzero"/></clipPath><clipPath id="61fc38a573"><path d="M 13.070312 39.050781 L 211.804688 39.050781 C 213.589844 39.050781 215.304688 39.757812 216.566406 41.019531 C 217.828125 42.285156 218.539062 43.996094 218.539062 45.78125 L 218.539062 141.210938 C 218.539062 142.996094 217.828125 144.707031 216.566406 145.972656 C 215.304688 147.234375 213.589844 147.941406 211.804688 147.941406 L 13.070312 147.941406 C 11.285156 147.941406 9.574219 147.234375 8.308594 145.972656 C 7.046875 144.707031 6.339844 142.996094 6.339844 141.210938 L 6.339844 45.78125 C 6.339844 43.996094 7.046875 42.285156 8.308594 41.019531 C 9.574219 39.757812 11.285156 39.050781 13.070312 39.050781 Z M 13.070312 39.050781 " clip-rule="nonzero"/></clipPath></defs><g clip-path="url(#8b0ab1e51c)"><g clip-path="url(#755ecacd21)"><path fill="#5433eb" d="M 79.175781 47.113281 C 71.382812 47.113281 65.0625 53.425781 65.0625 61.210938 L 65.0625 125.328125 C 65.0625 133.113281 71.382812 139.425781 79.175781 139.425781 L 194.179688 139.425781 C 201.972656 139.425781 208.292969 133.113281 208.292969 125.328125 L 208.292969 61.210938 C 208.292969 53.425781 201.972656 47.113281 194.179688 47.113281 Z M 99.039062 111.53125 L 99.039062 95.28125 L 109.273438 95.28125 C 118.621094 95.28125 123.59375 90.042969 123.59375 82.105469 C 123.59375 74.167969 118.621094 69.417969 109.273438 69.417969 L 92.445312 69.417969 L 92.445312 111.53125 Z M 99.039062 75.679688 L 107.757812 75.679688 C 113.8125 75.679688 116.785156 78.164062 116.785156 82.320312 C 116.785156 86.480469 113.921875 88.964844 108.027344 88.964844 L 99.039062 88.964844 Z M 135.21875 112.394531 C 140.246094 112.394531 143.542969 110.183594 145.058594 106.402344 C 145.488281 110.613281 148.03125 112.773438 153.542969 111.316406 L 153.597656 106.835938 C 151.378906 107.050781 150.949219 106.242188 150.949219 103.917969 L 150.949219 92.90625 C 150.949219 86.425781 146.679688 82.589844 138.789062 82.589844 C 131.003906 82.589844 126.519531 86.480469 126.519531 93.066406 L 132.570312 93.066406 C 132.570312 89.933594 134.789062 88.046875 138.679688 88.046875 C 142.789062 88.046875 144.679688 89.828125 144.625 92.90625 L 144.625 94.308594 L 137.652344 95.0625 C 129.816406 95.929688 125.492188 98.898438 125.492188 104.082031 C 125.492188 108.347656 128.519531 112.394531 135.21875 112.394531 Z M 136.570312 107.535156 C 133.167969 107.535156 131.816406 105.699219 131.816406 103.863281 C 131.816406 101.382812 134.625 100.246094 140.140625 99.597656 L 144.460938 99.113281 C 144.191406 103.863281 141.003906 107.535156 136.570312 107.535156 Z M 173.617188 113.636719 C 170.859375 120.332031 166.429688 122.332031 159.511719 122.332031 L 156.539062 122.332031 L 156.539062 116.824219 L 159.726562 116.824219 C 163.511719 116.824219 165.347656 115.636719 167.347656 112.234375 L 155.078125 83.457031 L 161.890625 83.457031 L 170.644531 104.460938 L 178.429688 83.457031 L 185.074219 83.457031 Z M 173.617188 113.636719 " fill-opacity="1" fill-rule="evenodd"/></g></g><path fill="#5433eb" d="M 28.417969 63.542969 C 21.515625 63.542969 15.050781 65.65625 10.410156 68.707031 C 10.09375 68.914062 9.984375 69.339844 10.179688 69.667969 L 15.78125 79.230469 C 15.988281 79.570312 16.425781 79.695312 16.765625 79.488281 C 20.289062 77.359375 24.324219 76.253906 28.441406 76.277344 C 39.535156 76.277344 47.691406 84.105469 47.691406 94.445312 C 47.691406 103.257812 41.164062 109.78125 32.890625 109.78125 C 26.144531 109.78125 21.46875 105.855469 21.46875 100.316406 C 21.46875 97.144531 22.816406 94.542969 26.328125 92.707031 C 26.691406 92.515625 26.828125 92.0625 26.609375 91.710938 L 21.320312 82.769531 C 21.152344 82.476562 20.789062 82.34375 20.457031 82.464844 C 13.375 85.089844 8.40625 91.40625 8.40625 99.890625 C 8.40625 112.722656 18.625 122.300781 32.878906 122.300781 C 49.527344 122.300781 61.496094 110.765625 61.496094 94.226562 C 61.496094 76.496094 47.570312 63.542969 28.417969 63.542969 Z M 28.417969 63.542969 " fill-opacity="1" fill-rule="nonzero"/><g clip-path="url(#6565c61d44)"><g clip-path="url(#61fc38a573)"><path stroke-linecap="butt" transform="matrix(0.748005, 0, 0, 0.748005, 6.338421, 39.049706)" fill="none" stroke-linejoin="miter" d="M 8.999792 0.00143729 L 274.685588 0.00143729 C 277.072144 0.00143729 279.3647 0.94666 281.051477 2.633437 C 282.738255 4.325438 283.6887 6.612771 283.6887 8.999327 L 283.6887 136.578225 C 283.6887 138.96478 282.738255 141.252114 281.051477 142.944114 C 279.3647 144.630892 277.072144 145.576114 274.685588 145.576114 L 8.999792 145.576114 C 6.613236 145.576114 4.325903 144.630892 2.633902 142.944114 C 0.947125 141.252114 0.00190221 138.96478 0.00190221 136.578225 L 0.00190221 8.999327 C 0.00190221 6.612771 0.947125 4.325438 2.633902 2.633437 C 4.325903 0.94666 6.613236 0.00143729 8.999792 0.00143729 Z M 8.999792 0.00143729 " stroke="#dcdddf" stroke-width="1" stroke-opacity="1" stroke-miterlimit="4"/></g></g></svg>